<?xml version="1.0" standalone="no"?>
<!DOCTYPE svg PUBLIC "-//W3C//DTD SVG 1.1//EN"
  "http://www.w3.org/Graphics/SVG/1.1/DTD/svg11.dtd">
<svg version="1.1" xmlns="http://www.w3.org/2000/svg" xmlns:xlink="http://www.w3.org/1999/xlink" width="1920" height="1080" viewBox="-1040.888888888889 -32 1889.7777777777778 1063" id="ccdiagram"><filter id="grayscale"><feColorMatrix type="matrix" values="0.3333 0.3333 0.3333 0 0 0.3333 0.3333 0.3333 0 0 0.3333 0.3333 0.3333 0 0 0 0 0 1 0"></feColorMatrix></filter><defs><style type="text/css">@import url('https://fonts.googleapis.com/css?family=Open+Sans:400,700|Inconsolata:400');</style></defs><g><g pointer-events="auto"><g opacity="1"><g><g><polygon points="-80 194, -16 194, 16 202, 432 442, 445 461, 445 498, 432 516, 32 747, 0 755, -64 755, -96 747, -512 507, -525 488, -525 451, -512 433, -112 202" fill="#000000" opacity="0.2"></polygon><polygon points="-80 187, -16 187, 16 194, 432 435, 445 453, 445 490, 432 509, 32 740, 0 748, -64 748, -96 740, -512 500, -525 481, -525 444, -512 426, -112 194" fill="#8ed1fc" stroke-width="2" stroke="#818181"></polygon><polygon points="-80 213, -16 213, 400 453, 400 490, 0 722, -64 722, -480 481, -480 444" fill="#8ed1fc" stroke-width="0" stroke="#818181"></polygon></g></g></g><g opacity="1"><g><g><polygon points="-144 424, 48 535, -48 590, -240 479" fill="#000000" opacity="0.2"></polygon><polygon points="-144 416, 48 527, -48 583, -240 472" fill="#ffffff" stroke-width="0" stroke="#818181"></polygon></g></g></g><g opacity="1"><g><g><polygon points="-288 507, -240 479, -48 590, -96 618, -128 618, -288 525" fill="#000000" opacity="0.2"></polygon><polygon points="-288 500, -240 472, -48 583, -96 611, -128 611, -288 518" fill="#2875e2" stroke-width="0" stroke="#818181"></polygon></g></g></g><g opacity="1"><g><g><polygon points="240 368, 397 460, 400 479, 352 507, 160 396, 208 367" fill="#000000" opacity="0.2"></polygon><polygon points="240 361, 397 453, 400 472, 352 500, 160 389, 208 359" fill="#2875e2" stroke-width="0" stroke="#818181"></polygon></g></g></g><g opacity="1"><g><g><polygon points="96 562, 161 600, 160 618, -16 720, -48 720, -112 683, -112 664, 64 562" fill="#000000" opacity="0.2"></polygon><polygon points="96 555, 161 593, 160 611, -16 712, -48 712, -112 675, -112 657, 64 555" fill="#ffffff" stroke-width="0" stroke="#818181"></polygon></g></g></g><g opacity="1"><g><g><polygon points="-352 414, -320 414, -288 433, -288 451, -320 470, -352 470, -384 451, -384 433" fill="#000000" opacity="0.2"></polygon><polygon points="-352 407, -320 407, -288 426, -288 444, -320 463, -352 463, -384 444, -384 426" fill="#ffffff" stroke-width="0" stroke="#818181"></polygon></g></g></g><g opacity="1"><g><g><polygon points="160 396, 352 507, 256 562, 64 451" fill="#000000" opacity="0.2"></polygon><polygon points="160 389, 352 500, 256 555, 64 444" fill="#ffffff" stroke-width="0" stroke="#818181"></polygon></g></g></g><g opacity="1"><g><g><polygon points="-48 220, -16 220, 144 313, 144 331, 96 359, -96 248" fill="#000000" opacity="0.2"></polygon><polygon points="-48 213, -16 213, 144 305, 144 324, 96 352, -96 241" fill="#2875e2" stroke-width="0" stroke="#818181"></polygon></g></g></g><g opacity="1"><g><g><polygon points="-96 248, 96 359, 0 414, -192 303" fill="#000000" opacity="0.2"></polygon><polygon points="-96 241, 96 352, 0 407, -192 296" fill="#ffffff" stroke-width="0" stroke="#818181"></polygon></g></g></g></g><g pointer-events="auto"></g><g></g><g pointer-events="auto"></g><g></g><g pointer-events="auto"><g opacity="1"><g id="4a2b3c7b-0d31-4455-8149-7ecb932a316f"><svg x="-97" y="259" overflow="visible"><polygon points="0 0, 418 242, 354 279, -64 37" fill="#f5b720"></polygon><polygon points="0 0, 418 242, 354 279, -64 37" fill="none" stroke-width="20" stroke="#f5b720" opacity="1"></polygon><g cursor="nwse-resize"><polygon points="0 0, -19 -11, 13 -30, -83 -11, -115 44, -83 26, -64 37" fill="#f5b720"></polygon><polygon points="418 242, 437 253, 469 234, 437 290, 341 308, 373 290, 354 279" fill="#f5b720"></polygon></g></svg></g></g></g><g pointer-events="none"></g><g pointer-events="auto"><g><g cursor="cell"><line x1="-80" y1="398" x2="-16" y2="435" stroke="red" stroke-width="10" opacity="0"></line><line x1="-80" y1="398" x2="-16" y2="435" stroke="#ffeb3b" stroke-width="4" stroke-linecap="round"></line></g></g><g><g cursor="cell"><line x1="-16" y1="435" x2="-68" y2="465" stroke="red" stroke-width="10" opacity="0"></line><line x1="-16" y1="435" x2="-68" y2="465" stroke="#ffeb3b" stroke-width="4" stroke-linecap="round"></line><polygon points="-80 472, -48 465, -64 463, -68 453, -80 472" stroke-linejoin="round" fill="#ffeb3b" stroke="#ffeb3b" stroke-width="1"></polygon></g></g><g><g cursor="cell"><line x1="-64" y1="518" x2="32" y2="574" stroke="red" stroke-width="10" opacity="0"></line><line x1="-64" y1="518" x2="32" y2="574" stroke="#f44336" stroke-width="4" stroke-dasharray="10,7.5" stroke-linecap="butt"></line></g></g><g><g cursor="cell"><line x1="-172" y1="456" x2="-272" y2="398" stroke="red" stroke-width="10" opacity="0"></line><line x1="-172" y1="456" x2="-272" y2="398" stroke="#ffeb3b" stroke-width="4" stroke-linecap="round"></line><polygon points="-160 463, -172 444, -176 453, -192 456, -160 463" stroke-linejoin="round" fill="#ffeb3b" stroke="#ffeb3b" stroke-width="1"></polygon></g></g><g><g cursor="cell"><line x1="176" y1="546" x2="212" y2="525" stroke="red" stroke-width="10" opacity="0"></line><line x1="176" y1="546" x2="212" y2="525" stroke="#ffeb3b" stroke-width="4" stroke-linecap="round"></line><polygon points="224 518, 192 525, 208 527, 212 536, 224 518" stroke-linejoin="round" fill="#ffeb3b" stroke="#ffeb3b" stroke-width="1"></polygon></g></g><g><g cursor="cell"><line x1="-176" y1="342" x2="-140" y2="321" stroke="red" stroke-width="10" opacity="0"></line><line x1="-176" y1="342" x2="-140" y2="321" stroke="#ffeb3b" stroke-width="4" stroke-linecap="round"></line><polygon points="-128 315, -160 321, -144 324, -140 333, -128 315" stroke-linejoin="round" fill="#ffeb3b" stroke="#ffeb3b" stroke-width="1"></polygon></g></g><g><g cursor="cell"><line x1="-524" y1="543" x2="-380" y2="460" stroke="red" stroke-width="10" opacity="0"></line><line x1="-524" y1="543" x2="-380" y2="460" stroke="#ffeb3b" stroke-width="4" stroke-linecap="round"></line><polygon points="-368 453, -400 460, -384 462, -380 472, -368 453" stroke-linejoin="round" fill="#ffeb3b" stroke="#ffeb3b" stroke-width="1"></polygon></g></g><g><g cursor="cell"><line x1="-44" y1="377" x2="-80" y2="398" stroke="red" stroke-width="10" opacity="0"></line><line x1="-44" y1="377" x2="-80" y2="398" stroke="#ffeb3b" stroke-width="4" stroke-linecap="round"></line><polygon points="-32 370, -64 377, -48 379, -44 388, -32 370" stroke-linejoin="round" fill="#ffeb3b" stroke="#ffeb3b" stroke-width="1"></polygon></g></g><g><g cursor="cell"><line x1="-80" y1="398" x2="-176" y2="342" stroke="red" stroke-width="10" opacity="0"></line><line x1="-80" y1="398" x2="-176" y2="342" stroke="#ffeb3b" stroke-width="4" stroke-linecap="round"></line></g></g><g><g cursor="cell"><line x1="116" y1="469" x2="80" y2="490" stroke="red" stroke-width="10" opacity="0"></line><line x1="116" y1="469" x2="80" y2="490" stroke="#ffeb3b" stroke-width="4" stroke-linecap="round"></line><polygon points="128 463, 96 469, 112 472, 116 481, 128 463" stroke-linejoin="round" fill="#ffeb3b" stroke="#ffeb3b" stroke-width="1"></polygon></g></g><g><g cursor="cell"><line x1="80" y1="490" x2="16" y2="453" stroke="red" stroke-width="10" opacity="0"></line><line x1="80" y1="490" x2="16" y2="453" stroke="#ffeb3b" stroke-width="4" stroke-linecap="round"></line></g></g><g><g cursor="cell"><line x1="-272" y1="398" x2="-304" y2="416" stroke="red" stroke-width="10" opacity="0"></line><line x1="-272" y1="398" x2="-304" y2="416" stroke="#ffeb3b" stroke-width="4" stroke-linecap="round"></line></g></g><g><g cursor="cell"><line x1="80" y1="490" x2="176" y2="546" stroke="red" stroke-width="10" opacity="0"></line><line x1="80" y1="490" x2="176" y2="546" stroke="#ffeb3b" stroke-width="4" stroke-linecap="round"></line></g></g><g><g cursor="cell"><line x1="16" y1="453" x2="-36" y2="483" stroke="red" stroke-width="10" opacity="0"></line><line x1="16" y1="453" x2="-36" y2="483" stroke="#ffeb3b" stroke-width="4" stroke-linecap="round"></line><polygon points="-48 490, -16 484, -32 481, -36 472, -48 490" stroke-linejoin="round" fill="#ffeb3b" stroke="#ffeb3b" stroke-width="1"></polygon></g></g></g><g pointer-events="auto"><g opacity="1"><g id="647a9179-993d-4eec-961e-2c465bc5553b" transform="translate(0 0)"><g><polygon points="-96 222, -32 259, -96 296, -160 259" fill="#e6e7e8"></polygon><polygon points="-160 296, -96 333, -96 296, -160 259" fill="#cbced0" stroke="#7c8186"></polygon><polygon points="-96 333, -32 296, -32 259, -96 296" fill="#b1b4b7" stroke="#7c8186"></polygon><polygon points="-96 222, -160 259, -160 296, -96 333, -32 296, -32 259" fill="none" stroke="#000000" stroke-width="2"></polygon></g></g></g><g opacity="1"><g id="916fd2c2-be03-4ac3-bcc5-da0d089cb420" transform="translate(0 0)"><g><polygon points="0 278, 64 315, 0 352, -64 315" fill="#e6e7e8"></polygon><polygon points="-64 352, 0 389, 0 352, -64 315" fill="#cbced0" stroke="#7c8186"></polygon><polygon points="0 389, 64 352, 64 315, 0 352" fill="#b1b4b7" stroke="#7c8186"></polygon><polygon points="0 278, -64 315, -64 352, 0 389, 64 352, 64 315" fill="none" stroke="#000000" stroke-width="2"></polygon></g></g></g><g opacity="1"><g id="44582701-cae0-4e01-a96d-f9ee31c4ea3f" transform="translate(0 0)"><g><polygon points="160 370, 224 407, 160 444, 96 407" fill="#e6e7e8"></polygon><polygon points="96 444, 160 481, 160 444, 96 407" fill="#cbced0" stroke="#7c8186"></polygon><polygon points="160 481, 224 444, 224 407, 160 444" fill="#b1b4b7" stroke="#7c8186"></polygon><polygon points="160 370, 96 407, 96 444, 160 481, 224 444, 224 407" fill="none" stroke="#000000" stroke-width="2"></polygon></g></g></g><g opacity="1"><g id="480ce71a-325e-4e15-a910-84c0ade622ae" transform="translate(0 0)"><g><polygon points="256 426, 320 463, 256 500, 192 463" fill="#e6e7e8"></polygon><polygon points="192 500, 256 537, 256 500, 192 463" fill="#cbced0" stroke="#7c8186"></polygon><polygon points="256 537, 320 500, 320 463, 256 500" fill="#b1b4b7" stroke="#7c8186"></polygon><polygon points="256 426, 192 463, 192 500, 256 537, 320 500, 320 463" fill="none" stroke="#000000" stroke-width="2"></polygon></g></g></g><g opacity="1"><g id="a612aced-ce38-4cff-96f6-7bb8b895561c" transform="translate(0 0)"><g><polygon points="-96 426, -32 463, -96 500, -160 463" fill="#e6e7e8"></polygon><polygon points="-160 500, -96 537, -96 500, -160 463" fill="#cbced0" stroke="#7c8186"></polygon><polygon points="-96 537, -32 500, -32 463, -96 500" fill="#b1b4b7" stroke="#7c8186"></polygon><polygon points="-96 426, -160 463, -160 500, -96 537, -32 500, -32 463" fill="none" stroke="#000000" stroke-width="2"></polygon></g></g></g><g opacity="1"><g id="2685515d-0fdf-4c31-b26d-7cf5ad8c321d" transform="translate(0 0)"><svg x="-584" y="478" height="95.068" width="63" viewBox="0 0 16.669 25.153"><path d="M16.668 22.903q0 1.64-.864 2.091-.865.451-2.297-.376L3.161 18.645q-1.433-.827-2.297-2.276Q.001 14.921 0 13.28q0-.723.042-1.39.042-.666.166-1.394.124-.727.313-1.302.19-.575.51-1.039.319-.464.733-.683.414-.22 1.012-.147.598.073 1.32.49.107.06.497.58.391.52.882 1.165.491.646 1.279 1.394.788.75 1.58 1.207.793.458 1.58.618.788.161 1.28.083.49-.079.881-.147.39-.069.497-.007.722.416 1.32 1.035.598.619 1.013 1.315.414.697.734 1.531t.509 1.627q.19.793.313 1.664.124.872.166 1.586.042.713.042 1.438zM12.88 8.51q0 2.173-1.332 2.942-1.332.769-3.214-.318-1.882-1.086-3.214-3.393Q3.79 5.434 3.79 3.26q0-2.173 1.331-2.942 1.332-.77 3.214.317t3.214 3.394q1.332 2.306 1.332 4.48z" fill="#000" stroke="#000000" stroke-width=".268"></path></svg></g></g></g><g pointer-events="auto"><g opacity="1"><g id="014c199c-403b-4689-9092-280ae5cf04bb" transform="translate(0 0)"><svg x="-96" y="463" overflow="visible"><g transform="scale(1.2734999999999999) matrix(0.707 0.409 -0.707 0.409 0 0)"><svg x="-32" y="-32" width="64" height="64"><svg width="64" height="64" viewBox="0 0 32 32"><style>.B{fill-rule:evenodd}.C{fill:#dcd9d8}.D{fill:#d33833}.E{fill:#231f20}.F{fill:#f7e4cd}.G{stroke:#d33833}.H{stroke-width:.257}</style><path d="M27.295 15.42c0 6.34-5.025 11.48-11.223 11.48S4.85 21.76 4.85 15.42 9.874 3.94 16.072 3.94s11.223 5.14 11.223 11.48" class="B D"></path><path d="M5.306 18.263S4.494 6.292 15.524 5.95l-.77-1.283-5.986 2-1.7 1.967-1.496 2.865-.855 3.335.257 2.223" fill="#ef3d3a"></path><path d="M8.385 7.59c-1.97 2.015-3.188 4.797-3.188 7.874s1.22 5.86 3.188 7.873 4.685 3.257 7.687 3.257 5.717-1.243 7.687-3.257 3.188-4.797 3.188-7.873-1.22-5.86-3.188-7.874-4.685-3.257-7.687-3.257-5.717 1.243-7.687 3.257zm-.498 16.235c-2.093-2.14-3.386-5.098-3.386-8.36s1.294-6.22 3.386-8.36 4.988-3.468 8.185-3.467 6.093 1.327 8.185 3.467 3.387 5.098 3.387 8.36-1.294 6.22-3.387 8.36-4.988 3.467-8.185 3.467-6.093-1.327-8.185-3.467" class="E"></path><g class="B"><path d="M20.796 15.484l-1.7.257-2.31.257-1.496.043-1.454-.043-1.112-.342-.983-1.07-.77-2.18-.17-.47-1.026-.342-.6-.983L8.74 9.2l.47-1.24 1.112-.385.898.428.428.94.513-.086.17-.214-.17-.983-.043-1.24.257-1.7-.01-.977.78-1.246 1.368-.983L16.905.477l2.65.385 2.31 1.667 1.07 1.7.684 1.24.17 3.078-.513 2.65-.94 2.35-.898 1.24" fill="#f0d6b7"></path><path d="M19.342 22.88l-6.114.257v1.026l.513 3.59-.257.3L9.21 26.6l-.3-.513-.428-4.83-.983-2.907-.214-.684 3.42-2.35 1.07-.428.94 1.154.812.727.94.3.427.128.513 2.223.385.47.983-.342-.684 1.325 3.72 1.753-.47.257" fill="#335061"></path><path d="M9.21 7.96l1.112-.385.898.428.428.94.513-.086.128-.513-.257-.983.257-2.352-.214-1.283.77-.898 1.667-1.325-.47-.64-2.352 1.154-.983.77-.556 1.197-.855 1.154-.257 1.368.17 1.454" fill="#6d6b6d"></path><path d="M10.962 3.94s.64-1.582 3.207-2.35.128-.556.128-.556l-2.78 1.07-1.07 1.07-.47.855.983-.086M9.68 7.66s-.898-2.993 2.523-3.42l-.128-.513-2.35.556-.684 2.223.17 1.454.47-.3" class="C"></path><path d="M11.048 11.636l.56-.542a.36.36 0 0 0 .295.329c.043.3.17 2.993 2 4.447.168.133-1.368-.214-1.368-.214l-1.368-2.138m7.738-2.695s.1-1.296.45-1.196.35.45.35.45-.848.548-.798.748" class="F"></path></g><path d="M22.464 6.077s-.705.15-.77.77.77.128.898.086M17.3 6.12s-.94.128-.94.727 1.07.556 1.368.3" class="F"></path><g class="B"><path d="M11.475 8.9S9.85 7.916 9.68 8.857s-.556 1.625.257 2.608l-.556-.17-.513-1.325-.17-1.283.983-1.026 1.112.086.64.513.043.64m.77-2.694s.727-3.762 4.404-4.5c3.027-.598 4.617.128 5.216.812 0 0-2.694-3.206-5.26-2.223s-4.446 2.8-4.406 3.943l.043 1.967m9.92-3.25s-1.24-.043-1.283 1.07a.86.86 0 0 0 .085.342s.984-1.112 1.582-.513m-5.813.628s-.213-1.706-1.668-.714c-.94.64-.855 1.54-.684 1.7s.125.515.255.28.087-1.006.558-1.22 1.24-.453 1.54-.055" class="F"></path><path d="M12.715 16.04l-4.02 1.796s1.667 6.627.812 8.68l-.6-.214-.043-2.523L7.756 19l-.47-1.325 4.2-2.822 1.24 1.197m.404 3.655l.57.696v2.565h-.684l-.085-2c0-.214.085-.983.085-.983m.127 3.367l-1.924.085.556.385 1.368.214" fill="#49728b"></path><g fill="#335061"><path d="M19.727 22.923l1.582-.043.385 3.934-1.625.214-.342-4.104"></path><path d="M20.155 22.923l2.394-.128.983-2.608c0-.128.855-3.59.855-3.59l-1.924-2.01-.385-.342-1.026 1.026v3.976l-.898 3.677"></path></g><path d="M21.224 22.624l-1.496.3.214 1.197c.556.257 1.496-.428 1.496-.428m-.172-8.55l2.993 2.223.086-1.026-2.266-2.095-.812.898" fill="#49728b"></path><path d="M14.627 31.346l-.885-3.592-.44-2.65-.073-1.967 4.006-.213h2.493l-.227 4.5.385 3.463-.043.64-3.25.257-1.967-.428" fill="#fff"></path><path d="M19.17 22.88s-.214 4.447.428 7.6c0 0-1.283.812-3.164 1.026l3.59-.128.428-.257-.513-7.012-.128-1.497" class="C"></path><path d="M21.767 26.472l1.667-.47 3.164-.17.47-1.454-.855-2.523-.983-.128-1.368.428-1.313.64-.697-.128-.543.213" fill="#fff"></path><path d="M21.737 25.616s1.112-.513 1.283-.47l-.47-2.352.556-.214.385 2.48 2.608.128s.513-.983.385-2l.47 1.368.043.77-.684 1.026-.77.17-1.283-.043-.428-.556-1.496.214-.47.17" class="C"></path></g><path d="M20.056 22.58l-.94-2.394-.983-1.41s.214-.6.513-.6h.983l.94.342-.085 1.582-.428 2.48" fill="#fff"></path><path d="M20.24 21.77s-1.197-2.31-1.197-2.65c0 0 .214-.513.513-.385s.94.47.94.47v-.812l-1.454-.3-.983.128 1.667 3.934.342.043" class="B C"></path><path d="M15.01 16.125l-1.184-.13-1.112-.342v.385l.543.6 1.7.77" fill="#fff"></path><g class="B"><path d="M13.1 16.254s1.325.556 1.753.428l.043.513-1.197-.256-.727-.513.128-.17" class="C"></path><path d="M21.762 18.323c-.725-.02-1.38-.107-1.955-.27.04-.235-.034-.466.025-.636.16-.115.428-.113.67-.14a1.167 1.167 0 0 0-.744-.084c-.006-.163-.08-.264-.123-.392.408-.146 1.37-1.1 1.912-.784.258.15.368 1.01.388 1.426.017.346-.03.696-.173.88" class="D"></path></g><path d="M21.762 18.323c-.725-.02-1.38-.107-1.955-.27.04-.235-.034-.466.025-.636.16-.115.428-.113.67-.14a1.167 1.167 0 0 0-.744-.084c-.006-.163-.08-.264-.123-.392.408-.146 1.37-1.1 1.912-.784.258.15.368 1.01.388 1.426.017.346-.03.696-.173.88z" fill="none" class="G H"></path><path d="M18.293 17.137l-.006.166c-.227.15-.592.147-.84.272.366.016.655.104.905.23l-.016.415c-.415.284-.794.708-1.283.974-.23.126-1.042.45-1.288.393-.14-.032-.152-.205-.207-.368-.118-.35-.39-.903-.415-1.428-.03-.663-.097-1.773.617-1.637a6.38 6.38 0 0 1 1.692.619c.273.15.43.333.844.365" class="B D"></path><path d="M18.293 17.137l-.006.166c-.227.15-.592.147-.84.272.366.016.655.104.905.23l-.016.415c-.415.284-.794.708-1.283.974-.23.126-1.042.45-1.288.393-.14-.032-.152-.205-.207-.368-.118-.35-.39-.903-.415-1.428-.03-.663-.097-1.773.617-1.637a6.38 6.38 0 0 1 1.692.619c.273.15.43.333.844.365z" fill="none" class="G H"></path><path d="M18.705 17.928c-.063-.36-.137-.464-.108-.78.963-.642 1.143 1.102.108.78" class="B D"></path><path d="M18.705 17.928c-.063-.36-.137-.464-.108-.78.963-.642 1.143 1.102.108.78z" fill="none" class="G H"></path><path d="M20.1 18.22s-.3-.428-.086-.556.428 0 .556-.214 0-.342.043-.6.257-.3.47-.342.812-.128.898.086l-.257-.77-.513-.17-1.625.94-.086.47v.94m-3.9 1.626l-.166-2c-.1-.995.24-.822 1.102-.822.132 0 .8.157.86.257.233.476-.4.37.27.73.556.303 1.538-.184 1.313-.858-.126-.15-.655-.047-.845-.145l-1.002-.52c-.425-.22-1.407-.542-1.86-.234-1.148.78.072 2.732.482 3.546" fill="#ef3d3a" class="B"></path><path d="M16.735 4.483c-1.165-.27-1.744.488-2.098 1.275-.315-.076-.2-.505-.1-.724.2-.574 1.05-1.337 1.736-1.234.296.045.696.315.472.683M22.413 5.8l.055.002c.263.547.5 1.127.823 1.6-.223.518-1.685.977-1.663.046.316-.138.862-.028 1.143-.205-.162-.445-.396-.824-.36-1.453m-5.08.034c.25.458.33.94.686 1.285.16.156.47.346.317.78a1 1 0 0 1-.45.375c-.555.164-1.85.034-1.4-.658.46.02 1.076.298 1.42-.035-.264-.42-.733-1.255-.56-1.746m4.87 4.655c-.836.537-1.768 1.12-3.138.986-.293-.254-.404-.82-.12-1.195.148.254.055.723.468.793.777.133 1.682-.475 2.24-.688.347-.585-.03-.8-.342-1.176-.64-.77-1.497-1.726-1.466-2.88.258-.187.28.286.318.372.334.78 1.174 1.78 1.787 2.45.15.165.4.323.426.432.08.317-.207.696-.174.907m-11.03-.567c-.262-.15-.324-.808-.632-.827-.44-.027-.36.855-.358 1.37-.303-.275-.356-1.12-.134-1.555-.253-.124-.367.137-.507.23.18-1.312 1.92-.6 1.63.783m11.555 1.1c-.4.74-.94 1.556-2.082 1.58-.023-.24-.04-.603.001-.747.873-.084 1.412-.528 2.08-.833m-5.47.48c.728.383 2.067.424 3.057.395.053.217.052.485.054.75-1.273.063-2.777-.25-3.1-1.145m-.14.714c.504 1.265 2.235 1.12 3.695 1.084-.064.164-.204.358-.377.428-.468.2-1.758.335-2.407-.01-.412-.22-.676-.714-.902-1.004-.1-.14-.652-.498-.008-.5" class="E B"></path><path d="M22.144 19.196l-1.858 2.945c.294-.864.42-2.31.464-3.414.615-.288 1.142.065 1.394.47" fill="#81b0c4" class="B"></path><path d="M25.324 22.834c-.662.132-1.127.776-1.772.734.355-.5.976-.7 1.772-.734m.292 1.036c-.54.057-1.173.144-1.72.1.26-.396 1.257-.26 1.72-.1m.187.892c-.606.013-1.36.001-1.936-.047.34-.366 1.543-.136 1.936.047" class="E B"></path><path d="M21.003 27.206c.087.76.39 1.533.35 2.366-.335.113-.528.212-.977.21l-.098-2.467c.22.015.547-.158.724-.1" class="B C"></path><path d="M20.026 15.986c-.304.2-.564.447-.856.66-.648.032-1.002-.045-1.478-.417.008-.03.056-.017.057-.053.694.31 1.576-.126 2.277-.19" fill="#f0d6b7" class="B"></path><path d="M16.383 20.716c.19-.826.938-1.254 1.616-1.71.7.89 1.126 2.03 1.595 3.134-1.108-.334-2.24-.876-3.21-1.425" fill="#81b0c4" class="B"></path><path d="M20.28 27.316c-.028.675.066 1.76.098 2.467.45.001.642-.098.977-.21.038-.834-.264-1.605-.35-2.366-.177-.047-.503.125-.724.1zm-6.992-3.84c.296 2.722.725 5 1.512 7.42 1.746.53 3.85.576 5.394.098-.283-1.36-.16-3.017-.325-4.47l-.232-3.303c-1.87-.39-4.513-.09-6.348.252zm6.8-.235c-.016 1.17.052 2.322.142 3.493l1.17-.204c-.135-1.127-.12-2.395-.395-3.392-.32.003-.6-.004-.918.103zm2.277-.188c-.213-.05-.46-.002-.665.002l.4 3.005c.32.01.49-.14.755-.192.014-.878-.077-2.088-.5-2.815zm3.448 3.15c.668-.162 1.087-.98.9-1.82-.125-.564-.348-1.627-.587-1.988-.176-.267-.655-.617-1.037-.372-.622.398-1.717.514-2.17.995.227.757.298 1.796.392 2.755.777.048 1.732-.214 2.378.064-.45.146-1.036.147-1.425.36.318.154 1.064.123 1.55.005zm-6.208-4.06c-.47-1.103-.895-2.246-1.595-3.134-.678.455-1.425.883-1.616 1.71.97.55 2.103 1.09 3.21 1.425zm1.156-3.415c-.044 1.103-.17 2.55-.464 3.414.7-.893 1.267-1.933 1.858-2.945-.252-.404-.78-.757-1.394-.47zm-1.3-.466c-.266-.03-.49.305-.837.16l-.232.268c.763.92 1.1 2.224 1.7 3.304.316-1.038.28-2.175.35-3.308-.434.028-.675-.393-.98-.425zm-.843-1.112c-.028.315.045.418.108.78 1.035.324.854-1.42-.108-.78zm-1.148-.377a6.38 6.38 0 0 0-1.692-.619c-.714-.137-.647.974-.617 1.637.024.525.297 1.08.415 1.428.056.163.068.335.207.368.246.057 1.057-.267 1.288-.393.49-.267.868-.7 1.283-.974l.016-.415a2.208 2.208 0 0 0-.905-.23c.25-.125.614-.123.84-.272l.006-.166c-.414-.032-.57-.216-.844-.365zm-4.26-.774c-.37.376 1.038.888 1.487.916-.003-.238.136-.462.108-.633-.533-.094-1.233-.032-1.594-.283zm4.56.176c-.002.037-.05.023-.057.053.476.372.83.45 1.478.417l.856-.66c-.7.063-1.583.498-2.277.19zm4.186 1.27c-.02-.418-.13-1.276-.388-1.426-.542-.316-1.505.638-1.912.784.044.128.118.23.123.392.24-.06.535-.02.744.084-.242.027-.5.025-.67.14-.06.17.014.4-.025.636.574.162 1.23.248 1.955.27.14-.183.19-.533.173-.88zm-9.37-1.082c-.116-.083-.903-1.106-1-1.064-1.423.56-2.753 1.53-3.942 2.45 1.134 2.432 1.59 5.413 1.672 8.285 1.3.607 2.44 1.483 4.2 1.574l-.506-4.088c-.443-.187-1.078.008-1.492-.058-.004-.5.633-.22.686-.554.04-.254-.35-.273-.223-.673.324.118.494.378.84.475.316-.69-.004-1.912.04-2.5.01-.108.054-.6.297-.514.215.076-.012 1.31.01 1.855.02.503-.06 1 .143 1.306a48.467 48.467 0 0 1 5.275-.432c-.405-.174-.887-.34-1.415-.636-.286-.16-1.188-.497-1.27-.77-.132-.433.346-.664.427-1.035-.86.47-1.027-.45-1.23-1.1-.184-.59-.29-1.03-.334-1.37-.74-.353-1.532-.7-2.17-1.163zm8.617-.94c1.186-.575 1.4 2.15.935 3.026.072.262.32.362.42.597l-2.07 3.463c.502-.313 1.22-.056 1.8-.3.216-.085.372-.58.536-.975.45-1.088.922-2.46 1.132-3.5.047-.237.177-.752.148-.963-.052-.377-.563-.657-.824-.9L22 14.659c-.203.3-.638.5-.804.744zM9.855 4.908c-.565.622-.447 1.786-.378 2.615 1.02-.642 2.376.05 2.364 1.143.488-.013.182-.61.094-.993-.288-1.254.486-2.616.035-3.763-.875.066-1.593.424-2.114.998zM13.897 1.3c-1.28.362-2.918 1.292-3.443 2.44.407-.06.69-.264 1.09-.3.152-.01.35.064.525.02.347-.086.64-.865.903-1.155.256-.283.563-.404.773-.662.135-.065.335-.06.342-.263-.06-.063-.12-.1-.2-.1zm6.657.34C19.227.893 16.98.33 15.568 1.033c-1.14.568-2.68 1.508-3.205 2.7.49 1.15-.145 2.203-.186 3.37-.022.62.292 1.163.316 1.84-.168.277-.68.31-1.036.292-.12-.598-.33-1.27-.944-1.338-.87-.095-1.508.626-1.548 1.38-.047.886.68 2.355 1.712 2.253.398-.04.496-.44.93-.435.235.47-.363.617-.424.952-.016.087.05.426.088.585.187.774.605 1.775 1.016 2.364.522.747 1.546.86 2.65.933.197-.424.922-.39 1.395-.278-.566-.224-1.093-.768-1.53-1.25-.5-.552-1.01-1.145-1.035-1.867.947 1.314 1.73 2.462 3.452 3.04 1.303.437 2.826-.2 3.827-.904.416-.292.664-.756.96-1.18 1.105-1.6 1.62-3.86 1.508-6.06-.047-.907-.045-1.81-.35-2.42-.318-.638-1.394-1.21-2.024-.632-.117-.62.524-1.004 1.276-.78-.536-.692-1.1-1.524-1.862-1.954zm2.473 20.467c1.037-.516 2.975-1.388 3.626.002.24.512.522 1.378.646 1.907.176.746-.2 2.314-.957 2.565-.677.22-1.468.208-2.284.044a1.265 1.265 0 0 1-.278-.364c-.583-.023-1.128.03-1.588.27.044.43-.248.5-.52.59-.203.803.405 1.852.26 2.584-.104.522-.746.602-1.217.7-.015.3.02.532.053.777-.108.397-.592.624-1.05.68-1.508.18-3.798.263-5.25-.26-.405-.993-.724-2.2-1.06-3.335-1.415.15-2.56-.61-3.638-1.11-.374-.173-.9-.27-1.03-.566-.135-.288-.08-.84-.113-1.36-.085-1.33-.16-2.615-.5-3.978-.158-.612-.433-1.15-.625-1.74-.177-.546-.487-1.22-.568-1.766-.12-.807.64-.852 1.126-1.202.75-.54 1.34-.84 2.155-1.328.24-.145.968-.5 1.05-.68.164-.334-.282-.805-.4-1.067a3.184 3.184 0 0 1-.314-1.175 2.268 2.268 0 0 1-1.513-.972c-.517-.758-.876-2.16-.428-3.227.035-.084.2-.25.236-.378.05-.254-.096-.592-.105-.862-.047-1.387.235-2.58 1.168-3 .38-1.5 1.735-2.01 3.013-2.762.478-.28 1.004-.46 1.548-.66 1.95-.718 4.944-.583 6.563.642.686.52 1.784 1.615 2.176 2.41 1.037 2.095.963 5.597.238 8.146-.097.342-.24.845-.436 1.256-.138.287-.565.86-.513 1.115.053.262.975.962 1.173 1.153.356.343 1.032.8 1.087 1.232.06.46-.203 1.092-.336 1.537l-1.38 4.18" class="B E"></path><path d="M16.107 11.83c.056-.075.366-.19.8.02 0 0-.513.086-.47.94l-.214-.043s-.22-.776-.114-.918" class="B F"></path><path d="M19.856 19.182a.235.235 0 1 1-.47 0 .235.235 0 0 1 .47 0m.234 1.1a.235.235 0 1 1-.47 0 .235.235 0 0 1 .47 0" fill="#1d1919" class="B"></path></svg></svg></g></svg></g></g><g opacity="1"><g id="6a6fd5d4-bfc8-49dd-a715-07074205918a" transform="translate(0 0)"><svg x="80" y="601" overflow="visible"><g transform="scale(1.2735) matrix(0.707 0.409 -0.707 0.409 0 0)"><svg x="-32" y="-32" width="64" height="64"><svg viewBox="-35.5 26 32 32" width="64" height="64"><path d="M-33.442 42.023v-7.637a.68.68 0 0 1 .385-.651l13.173-7.608c.237-.148.503-.178.74-.03l13.232 7.637a.71.71 0 0 1 .355.651V49.63a.71.71 0 0 1-.355.651l-11.367 6.57a56.27 56.27 0 0 1-1.806 1.036.776.776 0 0 1-.8 0l-13.202-7.608c-.237-.148-.355-.326-.355-.622V42.02z" fill="#009438"></path><path d="M-24.118 39.18v8.9c0 1.006-.8 1.894-1.865 1.865-.65-.03-1.154-.296-1.5-.858-.178-.266-.237-.562-.237-.888V35.836c0-.83.503-1.42 1.154-1.687s1.302-.207 1.954 0c.622.178 1.095.562 1.5 1.036l7.874 9.443c.03.03.06.09.118.148v-9c0-.947.65-1.687 1.57-1.776 1.154-.148 1.924.68 2.042 1.54v12.6c0 .7-.326 1.214-.918 1.54-.444.237-.918.296-1.42.266a3.23 3.23 0 0 1-1.954-.829c-.296-.266-.503-.592-.77-.888l-7.49-8.97c0-.03-.03-.06-.06-.09z" fill="#fefefe"></path></svg></svg></g></svg></g></g><g opacity="1"><g id="106b2afe-1883-4ff1-a5cd-5ecbfff463bd" transform="translate(0 0)"><svg x="-16" y="657" overflow="visible"><g transform="scale(1.2734999999999999) matrix(0.707 0.409 -0.707 0.409 0 0)"><svg x="-32" y="-32" width="64" height="64"><svg width="64" height="64" viewBox="0 0 32 32"><style>.B{fill-rule:evenodd}.C{fill:#dcd9d8}.D{fill:#d33833}.E{fill:#231f20}.F{fill:#f7e4cd}.G{stroke:#d33833}.H{stroke-width:.257}</style><path d="M27.295 15.42c0 6.34-5.025 11.48-11.223 11.48S4.85 21.76 4.85 15.42 9.874 3.94 16.072 3.94s11.223 5.14 11.223 11.48" class="B D"></path><path d="M5.306 18.263S4.494 6.292 15.524 5.95l-.77-1.283-5.986 2-1.7 1.967-1.496 2.865-.855 3.335.257 2.223" fill="#ef3d3a"></path><path d="M8.385 7.59c-1.97 2.015-3.188 4.797-3.188 7.874s1.22 5.86 3.188 7.873 4.685 3.257 7.687 3.257 5.717-1.243 7.687-3.257 3.188-4.797 3.188-7.873-1.22-5.86-3.188-7.874-4.685-3.257-7.687-3.257-5.717 1.243-7.687 3.257zm-.498 16.235c-2.093-2.14-3.386-5.098-3.386-8.36s1.294-6.22 3.386-8.36 4.988-3.468 8.185-3.467 6.093 1.327 8.185 3.467 3.387 5.098 3.387 8.36-1.294 6.22-3.387 8.36-4.988 3.467-8.185 3.467-6.093-1.327-8.185-3.467" class="E"></path><g class="B"><path d="M20.796 15.484l-1.7.257-2.31.257-1.496.043-1.454-.043-1.112-.342-.983-1.07-.77-2.18-.17-.47-1.026-.342-.6-.983L8.74 9.2l.47-1.24 1.112-.385.898.428.428.94.513-.086.17-.214-.17-.983-.043-1.24.257-1.7-.01-.977.78-1.246 1.368-.983L16.905.477l2.65.385 2.31 1.667 1.07 1.7.684 1.24.17 3.078-.513 2.65-.94 2.35-.898 1.24" fill="#f0d6b7"></path><path d="M19.342 22.88l-6.114.257v1.026l.513 3.59-.257.3L9.21 26.6l-.3-.513-.428-4.83-.983-2.907-.214-.684 3.42-2.35 1.07-.428.94 1.154.812.727.94.3.427.128.513 2.223.385.47.983-.342-.684 1.325 3.72 1.753-.47.257" fill="#335061"></path><path d="M9.21 7.96l1.112-.385.898.428.428.94.513-.086.128-.513-.257-.983.257-2.352-.214-1.283.77-.898 1.667-1.325-.47-.64-2.352 1.154-.983.77-.556 1.197-.855 1.154-.257 1.368.17 1.454" fill="#6d6b6d"></path><path d="M10.962 3.94s.64-1.582 3.207-2.35.128-.556.128-.556l-2.78 1.07-1.07 1.07-.47.855.983-.086M9.68 7.66s-.898-2.993 2.523-3.42l-.128-.513-2.35.556-.684 2.223.17 1.454.47-.3" class="C"></path><path d="M11.048 11.636l.56-.542a.36.36 0 0 0 .295.329c.043.3.17 2.993 2 4.447.168.133-1.368-.214-1.368-.214l-1.368-2.138m7.738-2.695s.1-1.296.45-1.196.35.45.35.45-.848.548-.798.748" class="F"></path></g><path d="M22.464 6.077s-.705.15-.77.77.77.128.898.086M17.3 6.12s-.94.128-.94.727 1.07.556 1.368.3" class="F"></path><g class="B"><path d="M11.475 8.9S9.85 7.916 9.68 8.857s-.556 1.625.257 2.608l-.556-.17-.513-1.325-.17-1.283.983-1.026 1.112.086.64.513.043.64m.77-2.694s.727-3.762 4.404-4.5c3.027-.598 4.617.128 5.216.812 0 0-2.694-3.206-5.26-2.223s-4.446 2.8-4.406 3.943l.043 1.967m9.92-3.25s-1.24-.043-1.283 1.07a.86.86 0 0 0 .085.342s.984-1.112 1.582-.513m-5.813.628s-.213-1.706-1.668-.714c-.94.64-.855 1.54-.684 1.7s.125.515.255.28.087-1.006.558-1.22 1.24-.453 1.54-.055" class="F"></path><path d="M12.715 16.04l-4.02 1.796s1.667 6.627.812 8.68l-.6-.214-.043-2.523L7.756 19l-.47-1.325 4.2-2.822 1.24 1.197m.404 3.655l.57.696v2.565h-.684l-.085-2c0-.214.085-.983.085-.983m.127 3.367l-1.924.085.556.385 1.368.214" fill="#49728b"></path><g fill="#335061"><path d="M19.727 22.923l1.582-.043.385 3.934-1.625.214-.342-4.104"></path><path d="M20.155 22.923l2.394-.128.983-2.608c0-.128.855-3.59.855-3.59l-1.924-2.01-.385-.342-1.026 1.026v3.976l-.898 3.677"></path></g><path d="M21.224 22.624l-1.496.3.214 1.197c.556.257 1.496-.428 1.496-.428m-.172-8.55l2.993 2.223.086-1.026-2.266-2.095-.812.898" fill="#49728b"></path><path d="M14.627 31.346l-.885-3.592-.44-2.65-.073-1.967 4.006-.213h2.493l-.227 4.5.385 3.463-.043.64-3.25.257-1.967-.428" fill="#fff"></path><path d="M19.17 22.88s-.214 4.447.428 7.6c0 0-1.283.812-3.164 1.026l3.59-.128.428-.257-.513-7.012-.128-1.497" class="C"></path><path d="M21.767 26.472l1.667-.47 3.164-.17.47-1.454-.855-2.523-.983-.128-1.368.428-1.313.64-.697-.128-.543.213" fill="#fff"></path><path d="M21.737 25.616s1.112-.513 1.283-.47l-.47-2.352.556-.214.385 2.48 2.608.128s.513-.983.385-2l.47 1.368.043.77-.684 1.026-.77.17-1.283-.043-.428-.556-1.496.214-.47.17" class="C"></path></g><path d="M20.056 22.58l-.94-2.394-.983-1.41s.214-.6.513-.6h.983l.94.342-.085 1.582-.428 2.48" fill="#fff"></path><path d="M20.24 21.77s-1.197-2.31-1.197-2.65c0 0 .214-.513.513-.385s.94.47.94.47v-.812l-1.454-.3-.983.128 1.667 3.934.342.043" class="B C"></path><path d="M15.01 16.125l-1.184-.13-1.112-.342v.385l.543.6 1.7.77" fill="#fff"></path><g class="B"><path d="M13.1 16.254s1.325.556 1.753.428l.043.513-1.197-.256-.727-.513.128-.17" class="C"></path><path d="M21.762 18.323c-.725-.02-1.38-.107-1.955-.27.04-.235-.034-.466.025-.636.16-.115.428-.113.67-.14a1.167 1.167 0 0 0-.744-.084c-.006-.163-.08-.264-.123-.392.408-.146 1.37-1.1 1.912-.784.258.15.368 1.01.388 1.426.017.346-.03.696-.173.88" class="D"></path></g><path d="M21.762 18.323c-.725-.02-1.38-.107-1.955-.27.04-.235-.034-.466.025-.636.16-.115.428-.113.67-.14a1.167 1.167 0 0 0-.744-.084c-.006-.163-.08-.264-.123-.392.408-.146 1.37-1.1 1.912-.784.258.15.368 1.01.388 1.426.017.346-.03.696-.173.88z" fill="none" class="G H"></path><path d="M18.293 17.137l-.006.166c-.227.15-.592.147-.84.272.366.016.655.104.905.23l-.016.415c-.415.284-.794.708-1.283.974-.23.126-1.042.45-1.288.393-.14-.032-.152-.205-.207-.368-.118-.35-.39-.903-.415-1.428-.03-.663-.097-1.773.617-1.637a6.38 6.38 0 0 1 1.692.619c.273.15.43.333.844.365" class="B D"></path><path d="M18.293 17.137l-.006.166c-.227.15-.592.147-.84.272.366.016.655.104.905.23l-.016.415c-.415.284-.794.708-1.283.974-.23.126-1.042.45-1.288.393-.14-.032-.152-.205-.207-.368-.118-.35-.39-.903-.415-1.428-.03-.663-.097-1.773.617-1.637a6.38 6.38 0 0 1 1.692.619c.273.15.43.333.844.365z" fill="none" class="G H"></path><path d="M18.705 17.928c-.063-.36-.137-.464-.108-.78.963-.642 1.143 1.102.108.78" class="B D"></path><path d="M18.705 17.928c-.063-.36-.137-.464-.108-.78.963-.642 1.143 1.102.108.78z" fill="none" class="G H"></path><path d="M20.1 18.22s-.3-.428-.086-.556.428 0 .556-.214 0-.342.043-.6.257-.3.47-.342.812-.128.898.086l-.257-.77-.513-.17-1.625.94-.086.47v.94m-3.9 1.626l-.166-2c-.1-.995.24-.822 1.102-.822.132 0 .8.157.86.257.233.476-.4.37.27.73.556.303 1.538-.184 1.313-.858-.126-.15-.655-.047-.845-.145l-1.002-.52c-.425-.22-1.407-.542-1.86-.234-1.148.78.072 2.732.482 3.546" fill="#ef3d3a" class="B"></path><path d="M16.735 4.483c-1.165-.27-1.744.488-2.098 1.275-.315-.076-.2-.505-.1-.724.2-.574 1.05-1.337 1.736-1.234.296.045.696.315.472.683M22.413 5.8l.055.002c.263.547.5 1.127.823 1.6-.223.518-1.685.977-1.663.046.316-.138.862-.028 1.143-.205-.162-.445-.396-.824-.36-1.453m-5.08.034c.25.458.33.94.686 1.285.16.156.47.346.317.78a1 1 0 0 1-.45.375c-.555.164-1.85.034-1.4-.658.46.02 1.076.298 1.42-.035-.264-.42-.733-1.255-.56-1.746m4.87 4.655c-.836.537-1.768 1.12-3.138.986-.293-.254-.404-.82-.12-1.195.148.254.055.723.468.793.777.133 1.682-.475 2.24-.688.347-.585-.03-.8-.342-1.176-.64-.77-1.497-1.726-1.466-2.88.258-.187.28.286.318.372.334.78 1.174 1.78 1.787 2.45.15.165.4.323.426.432.08.317-.207.696-.174.907m-11.03-.567c-.262-.15-.324-.808-.632-.827-.44-.027-.36.855-.358 1.37-.303-.275-.356-1.12-.134-1.555-.253-.124-.367.137-.507.23.18-1.312 1.92-.6 1.63.783m11.555 1.1c-.4.74-.94 1.556-2.082 1.58-.023-.24-.04-.603.001-.747.873-.084 1.412-.528 2.08-.833m-5.47.48c.728.383 2.067.424 3.057.395.053.217.052.485.054.75-1.273.063-2.777-.25-3.1-1.145m-.14.714c.504 1.265 2.235 1.12 3.695 1.084-.064.164-.204.358-.377.428-.468.2-1.758.335-2.407-.01-.412-.22-.676-.714-.902-1.004-.1-.14-.652-.498-.008-.5" class="E B"></path><path d="M22.144 19.196l-1.858 2.945c.294-.864.42-2.31.464-3.414.615-.288 1.142.065 1.394.47" fill="#81b0c4" class="B"></path><path d="M25.324 22.834c-.662.132-1.127.776-1.772.734.355-.5.976-.7 1.772-.734m.292 1.036c-.54.057-1.173.144-1.72.1.26-.396 1.257-.26 1.72-.1m.187.892c-.606.013-1.36.001-1.936-.047.34-.366 1.543-.136 1.936.047" class="E B"></path><path d="M21.003 27.206c.087.76.39 1.533.35 2.366-.335.113-.528.212-.977.21l-.098-2.467c.22.015.547-.158.724-.1" class="B C"></path><path d="M20.026 15.986c-.304.2-.564.447-.856.66-.648.032-1.002-.045-1.478-.417.008-.03.056-.017.057-.053.694.31 1.576-.126 2.277-.19" fill="#f0d6b7" class="B"></path><path d="M16.383 20.716c.19-.826.938-1.254 1.616-1.71.7.89 1.126 2.03 1.595 3.134-1.108-.334-2.24-.876-3.21-1.425" fill="#81b0c4" class="B"></path><path d="M20.28 27.316c-.028.675.066 1.76.098 2.467.45.001.642-.098.977-.21.038-.834-.264-1.605-.35-2.366-.177-.047-.503.125-.724.1zm-6.992-3.84c.296 2.722.725 5 1.512 7.42 1.746.53 3.85.576 5.394.098-.283-1.36-.16-3.017-.325-4.47l-.232-3.303c-1.87-.39-4.513-.09-6.348.252zm6.8-.235c-.016 1.17.052 2.322.142 3.493l1.17-.204c-.135-1.127-.12-2.395-.395-3.392-.32.003-.6-.004-.918.103zm2.277-.188c-.213-.05-.46-.002-.665.002l.4 3.005c.32.01.49-.14.755-.192.014-.878-.077-2.088-.5-2.815zm3.448 3.15c.668-.162 1.087-.98.9-1.82-.125-.564-.348-1.627-.587-1.988-.176-.267-.655-.617-1.037-.372-.622.398-1.717.514-2.17.995.227.757.298 1.796.392 2.755.777.048 1.732-.214 2.378.064-.45.146-1.036.147-1.425.36.318.154 1.064.123 1.55.005zm-6.208-4.06c-.47-1.103-.895-2.246-1.595-3.134-.678.455-1.425.883-1.616 1.71.97.55 2.103 1.09 3.21 1.425zm1.156-3.415c-.044 1.103-.17 2.55-.464 3.414.7-.893 1.267-1.933 1.858-2.945-.252-.404-.78-.757-1.394-.47zm-1.3-.466c-.266-.03-.49.305-.837.16l-.232.268c.763.92 1.1 2.224 1.7 3.304.316-1.038.28-2.175.35-3.308-.434.028-.675-.393-.98-.425zm-.843-1.112c-.028.315.045.418.108.78 1.035.324.854-1.42-.108-.78zm-1.148-.377a6.38 6.38 0 0 0-1.692-.619c-.714-.137-.647.974-.617 1.637.024.525.297 1.08.415 1.428.056.163.068.335.207.368.246.057 1.057-.267 1.288-.393.49-.267.868-.7 1.283-.974l.016-.415a2.208 2.208 0 0 0-.905-.23c.25-.125.614-.123.84-.272l.006-.166c-.414-.032-.57-.216-.844-.365zm-4.26-.774c-.37.376 1.038.888 1.487.916-.003-.238.136-.462.108-.633-.533-.094-1.233-.032-1.594-.283zm4.56.176c-.002.037-.05.023-.057.053.476.372.83.45 1.478.417l.856-.66c-.7.063-1.583.498-2.277.19zm4.186 1.27c-.02-.418-.13-1.276-.388-1.426-.542-.316-1.505.638-1.912.784.044.128.118.23.123.392.24-.06.535-.02.744.084-.242.027-.5.025-.67.14-.06.17.014.4-.025.636.574.162 1.23.248 1.955.27.14-.183.19-.533.173-.88zm-9.37-1.082c-.116-.083-.903-1.106-1-1.064-1.423.56-2.753 1.53-3.942 2.45 1.134 2.432 1.59 5.413 1.672 8.285 1.3.607 2.44 1.483 4.2 1.574l-.506-4.088c-.443-.187-1.078.008-1.492-.058-.004-.5.633-.22.686-.554.04-.254-.35-.273-.223-.673.324.118.494.378.84.475.316-.69-.004-1.912.04-2.5.01-.108.054-.6.297-.514.215.076-.012 1.31.01 1.855.02.503-.06 1 .143 1.306a48.467 48.467 0 0 1 5.275-.432c-.405-.174-.887-.34-1.415-.636-.286-.16-1.188-.497-1.27-.77-.132-.433.346-.664.427-1.035-.86.47-1.027-.45-1.23-1.1-.184-.59-.29-1.03-.334-1.37-.74-.353-1.532-.7-2.17-1.163zm8.617-.94c1.186-.575 1.4 2.15.935 3.026.072.262.32.362.42.597l-2.07 3.463c.502-.313 1.22-.056 1.8-.3.216-.085.372-.58.536-.975.45-1.088.922-2.46 1.132-3.5.047-.237.177-.752.148-.963-.052-.377-.563-.657-.824-.9L22 14.659c-.203.3-.638.5-.804.744zM9.855 4.908c-.565.622-.447 1.786-.378 2.615 1.02-.642 2.376.05 2.364 1.143.488-.013.182-.61.094-.993-.288-1.254.486-2.616.035-3.763-.875.066-1.593.424-2.114.998zM13.897 1.3c-1.28.362-2.918 1.292-3.443 2.44.407-.06.69-.264 1.09-.3.152-.01.35.064.525.02.347-.086.64-.865.903-1.155.256-.283.563-.404.773-.662.135-.065.335-.06.342-.263-.06-.063-.12-.1-.2-.1zm6.657.34C19.227.893 16.98.33 15.568 1.033c-1.14.568-2.68 1.508-3.205 2.7.49 1.15-.145 2.203-.186 3.37-.022.62.292 1.163.316 1.84-.168.277-.68.31-1.036.292-.12-.598-.33-1.27-.944-1.338-.87-.095-1.508.626-1.548 1.38-.047.886.68 2.355 1.712 2.253.398-.04.496-.44.93-.435.235.47-.363.617-.424.952-.016.087.05.426.088.585.187.774.605 1.775 1.016 2.364.522.747 1.546.86 2.65.933.197-.424.922-.39 1.395-.278-.566-.224-1.093-.768-1.53-1.25-.5-.552-1.01-1.145-1.035-1.867.947 1.314 1.73 2.462 3.452 3.04 1.303.437 2.826-.2 3.827-.904.416-.292.664-.756.96-1.18 1.105-1.6 1.62-3.86 1.508-6.06-.047-.907-.045-1.81-.35-2.42-.318-.638-1.394-1.21-2.024-.632-.117-.62.524-1.004 1.276-.78-.536-.692-1.1-1.524-1.862-1.954zm2.473 20.467c1.037-.516 2.975-1.388 3.626.002.24.512.522 1.378.646 1.907.176.746-.2 2.314-.957 2.565-.677.22-1.468.208-2.284.044a1.265 1.265 0 0 1-.278-.364c-.583-.023-1.128.03-1.588.27.044.43-.248.5-.52.59-.203.803.405 1.852.26 2.584-.104.522-.746.602-1.217.7-.015.3.02.532.053.777-.108.397-.592.624-1.05.68-1.508.18-3.798.263-5.25-.26-.405-.993-.724-2.2-1.06-3.335-1.415.15-2.56-.61-3.638-1.11-.374-.173-.9-.27-1.03-.566-.135-.288-.08-.84-.113-1.36-.085-1.33-.16-2.615-.5-3.978-.158-.612-.433-1.15-.625-1.74-.177-.546-.487-1.22-.568-1.766-.12-.807.64-.852 1.126-1.202.75-.54 1.34-.84 2.155-1.328.24-.145.968-.5 1.05-.68.164-.334-.282-.805-.4-1.067a3.184 3.184 0 0 1-.314-1.175 2.268 2.268 0 0 1-1.513-.972c-.517-.758-.876-2.16-.428-3.227.035-.084.2-.25.236-.378.05-.254-.096-.592-.105-.862-.047-1.387.235-2.58 1.168-3 .38-1.5 1.735-2.01 3.013-2.762.478-.28 1.004-.46 1.548-.66 1.95-.718 4.944-.583 6.563.642.686.52 1.784 1.615 2.176 2.41 1.037 2.095.963 5.597.238 8.146-.097.342-.24.845-.436 1.256-.138.287-.565.86-.513 1.115.053.262.975.962 1.173 1.153.356.343 1.032.8 1.087 1.232.06.46-.203 1.092-.336 1.537l-1.38 4.18" class="B E"></path><path d="M16.107 11.83c.056-.075.366-.19.8.02 0 0-.513.086-.47.94l-.214-.043s-.22-.776-.114-.918" class="B F"></path><path d="M19.856 19.182a.235.235 0 1 1-.47 0 .235.235 0 0 1 .47 0m.234 1.1a.235.235 0 1 1-.47 0 .235.235 0 0 1 .47 0" fill="#1d1919" class="B"></path></svg></svg></g></svg></g></g></g><g pointer-events="auto"><g opacity="1"><g id="42f64bbc-032a-4892-9149-4d0a93138431" transform="translate(0 0)"><svg x="-336" y="435" overflow="visible"><g transform="scale(1.8866823560154478) matrix(0.707 0.409 -0.707 0.409 0 0)"><circle cx="0" cy="0" fill="transparent" r="25"></circle><svg width="50" height="50" x="-25" y="-25" style=""><svg xmlns="http://www.w3.org/2000/svg" viewBox="0 0 50 50"><g id="Working" fill="#d86613"><path d="M39.56 32.24l-1.46-1.36L43.56 25l-5.46-5.88 1.46-1.36 6.09 6.56a1 1 0 0 1 0 1.36z"></path><path d="M20.08 24h23.44v2H20.08z"></path><path d="M12.58 33.5a8.5 8.5 0 1 1 8.5-8.5 8.51 8.51 0 0 1-8.5 8.5zm0-15a6.5 6.5 0 1 0 6.5 6.5 6.51 6.51 0 0 0-6.5-6.5z"></path></g></svg></svg></g></svg></g></g></g><g pointer-events="auto"><g opacity="1"><g id="7eca4e00-a9b2-4604-b6bf-30e73c1081d1" transform="translate(0 0)"><svg x="-112" y="342" overflow="visible"><text stroke="#ffffff" stroke-width="4" font-family="Open Sans" y="36.5" font-size="25pt" fill="#000000" font-weight="bold" transform="matrix(0.707, 0.409, 0, 0.816, 0, 0)" xml:space="preserve"><tspan x="8" dy="0"> Auto Scaling Group</tspan></text><text font-family="Open Sans" y="36.5" font-size="25pt" fill="#000000" font-weight="bold" transform="matrix(0.707, 0.409, 0, 0.816, 0, 0)" xml:space="preserve"><tspan x="8" dy="0"> Auto Scaling Group</tspan></text></svg></g></g><g opacity="1"><g id="aab394ba-6b52-411e-add3-a723d62733d9" transform="translate(0 0)"><svg x="-240" y="490" overflow="visible"><text stroke="#000000" stroke-width="0" font-family="Open Sans" y="33.08" font-size="22pt" fill="#ffffff" font-weight="bold" transform="matrix(0.707 0.409 -0.707 0.409 0 0)" xml:space="preserve"><tspan x="8" dy="0">Public Subnet</tspan></text><text font-family="Open Sans" y="33.08" font-size="22pt" fill="#ffffff" font-weight="bold" transform="matrix(0.707 0.409 -0.707 0.409 0 0)" xml:space="preserve"><tspan x="8" dy="0">Public Subnet</tspan></text></svg></g></g><g opacity="1"><g id="ddb59e2b-c7fa-4e06-b855-19870d025343" transform="translate(0 0)"><svg x="-48" y="213" overflow="visible"><text stroke="#000000" stroke-width="0" font-family="Open Sans" y="33.08" font-size="22pt" fill="#ffffff" font-weight="bold" transform="matrix(0.707 0.409 -0.707 0.409 0 0)" xml:space="preserve"><tspan x="8" dy="0"> Private Subnet 1</tspan></text><text font-family="Open Sans" y="33.08" font-size="22pt" fill="#ffffff" font-weight="bold" transform="matrix(0.707 0.409 -0.707 0.409 0 0)" xml:space="preserve"><tspan x="8" dy="0"> Private Subnet 1</tspan></text></svg></g></g><g opacity="1"><g id="5951db26-869d-41f0-9bf5-1e0ddefe9150" transform="translate(0 0)"><svg x="208" y="361" overflow="visible"><text stroke="#000000" stroke-width="0" font-family="Open Sans" y="33.08" font-size="22pt" fill="#ffffff" font-weight="bold" transform="matrix(0.707 0.409 -0.707 0.409 0 0)" xml:space="preserve"><tspan x="8" dy="0"> Private Subnet 2</tspan></text><text font-family="Open Sans" y="33.08" font-size="22pt" fill="#ffffff" font-weight="bold" transform="matrix(0.707 0.409 -0.707 0.409 0 0)" xml:space="preserve"><tspan x="8" dy="0"> Private Subnet 2</tspan></text></svg></g></g><g opacity="1"><g id="ece7ce16-addb-4ed6-8881-f7489ca800ef"><svg x="-80" y="657" overflow="visible"><text stroke="#ffffff" stroke-width="4" font-family="Open Sans" y="26.24" font-size="16pt" fill="#000000" font-weight="bold" transform="matrix(0.707 0.409 -0.707 0.409 0 0)" xml:space="preserve"><tspan x="8" dy="0">Jenkins</tspan></text><text font-family="Open Sans" y="26.24" font-size="16pt" fill="#000000" font-weight="bold" transform="matrix(0.707 0.409 -0.707 0.409 0 0)" xml:space="preserve"><tspan x="8" dy="0">Jenkins</tspan></text></svg></g></g><g opacity="1"><g id="bab4921f-9a01-4ce9-a79b-36a122c3e449"><svg x="16" y="601" overflow="visible"><text stroke="#ffffff" stroke-width="4" font-family="Open Sans" y="26.24" font-size="16pt" fill="#000000" font-weight="bold" transform="matrix(0.707 0.409 -0.707 0.409 0 0)" xml:space="preserve"><tspan x="8" dy="0"> Nginx</tspan></text><text font-family="Open Sans" y="26.24" font-size="16pt" fill="#000000" font-weight="bold" transform="matrix(0.707 0.409 -0.707 0.409 0 0)" xml:space="preserve"><tspan x="8" dy="0"> Nginx</tspan></text></svg></g></g><g opacity="1"><g id="e24dc2db-0a61-406b-ae93-eaaeaa7e0fd5"><svg x="-48" y="509" overflow="visible"><text stroke="#ffffff" stroke-width="4" font-family="Open Sans" y="26.24" font-size="16pt" fill="#000000" font-weight="bold" transform="matrix(0.707 0.409 -0.707 0.409 0 0)" xml:space="preserve"><tspan x="8" dy="0"> contains</tspan></text><text font-family="Open Sans" y="26.24" font-size="16pt" fill="#000000" font-weight="bold" transform="matrix(0.707 0.409 -0.707 0.409 0 0)" xml:space="preserve"><tspan x="8" dy="0"> contains</tspan></text></svg></g></g><g opacity="1"><g id="d57f9811-ea8b-4462-8162-60cb569d0b38" transform="translate(0 0)"><svg x="-112" y="231" overflow="visible"><text stroke="#ffffff" stroke-width="4" font-family="Open Sans" y="26.24" font-size="16pt" fill="#000000" font-weight="bold" transform="matrix(0.707 0.409 -0.707 0.409 0 0)" xml:space="preserve"><tspan x="8" dy="0">Swarm</tspan><tspan x="8" dy="1.1em"> Client</tspan></text><text font-family="Open Sans" y="26.24" font-size="16pt" fill="#000000" font-weight="bold" transform="matrix(0.707 0.409 -0.707 0.409 0 0)" xml:space="preserve"><tspan x="8" dy="0">Swarm</tspan><tspan x="8" dy="1.1em"> Client</tspan></text></svg></g></g><g opacity="1"><g id="57095938-57c2-45d3-b484-d808065fc8b7" transform="translate(0 0)"><svg x="-16" y="287" overflow="visible"><text stroke="#ffffff" stroke-width="4" font-family="Open Sans" y="26.24" font-size="16pt" fill="#000000" font-weight="bold" transform="matrix(0.707 0.409 -0.707 0.409 0 0)" xml:space="preserve"><tspan x="8" dy="0">Swarm</tspan><tspan x="8" dy="1.1em"> Client</tspan></text><text font-family="Open Sans" y="26.24" font-size="16pt" fill="#000000" font-weight="bold" transform="matrix(0.707 0.409 -0.707 0.409 0 0)" xml:space="preserve"><tspan x="8" dy="0">Swarm</tspan><tspan x="8" dy="1.1em"> Client</tspan></text></svg></g></g><g opacity="1"><g id="54457aad-7fdd-407e-be7c-7a8e388fb8ee" transform="translate(0 0)"><svg x="144" y="379" overflow="visible"><text stroke="#ffffff" stroke-width="4" font-family="Open Sans" y="26.24" font-size="16pt" fill="#000000" font-weight="bold" transform="matrix(0.707 0.409 -0.707 0.409 0 0)" xml:space="preserve"><tspan x="8" dy="0">Swarm</tspan><tspan x="8" dy="1.1em"> Client</tspan></text><text font-family="Open Sans" y="26.24" font-size="16pt" fill="#000000" font-weight="bold" transform="matrix(0.707 0.409 -0.707 0.409 0 0)" xml:space="preserve"><tspan x="8" dy="0">Swarm</tspan><tspan x="8" dy="1.1em"> Client</tspan></text></svg></g></g><g opacity="1"><g id="e0726390-b5f0-424d-857b-baee2a428e24" transform="translate(0 0)"><svg x="240" y="435" overflow="visible"><text stroke="#ffffff" stroke-width="4" font-family="Open Sans" y="26.24" font-size="16pt" fill="#000000" font-weight="bold" transform="matrix(0.707 0.409 -0.707 0.409 0 0)" xml:space="preserve"><tspan x="8" dy="0">Swarm</tspan><tspan x="8" dy="1.1em"> Client</tspan></text><text font-family="Open Sans" y="26.24" font-size="16pt" fill="#000000" font-weight="bold" transform="matrix(0.707 0.409 -0.707 0.409 0 0)" xml:space="preserve"><tspan x="8" dy="0">Swarm</tspan><tspan x="8" dy="1.1em"> Client</tspan></text></svg></g></g><g opacity="1"><g id="455b83f2-1b44-4b0f-a000-22469e04f1b1" transform="translate(0 0)"><svg x="-272" y="564" overflow="visible"><text stroke="#000000" stroke-width="0" font-family="Open Sans" y="46.76" font-size="34pt" fill="#ffffff" font-weight="bold" transform="matrix(0.707 0.409 -0.707 0.409 0 0)" xml:space="preserve"><tspan x="8" dy="0">VPC</tspan></text><text font-family="Open Sans" y="46.76" font-size="34pt" fill="#ffffff" font-weight="bold" transform="matrix(0.707 0.409 -0.707 0.409 0 0)" xml:space="preserve"><tspan x="8" dy="0">VPC</tspan></text></svg></g></g><g opacity="1"><g id="0cee09d1-6c0f-4efb-bf97-89493732ce3c" transform="translate(0 0)"><svg x="-432" y="435" overflow="visible"><text stroke="#ffffff" stroke-width="4" font-family="Open Sans" y="36.5" font-size="25pt" fill="#000000" font-weight="bold" transform="matrix(0.707, 0.409, 0, 0.816, 0, 0)" xml:space="preserve"><tspan x="8" dy="0">EIP</tspan></text><text font-family="Open Sans" y="36.5" font-size="25pt" fill="#000000" font-weight="bold" transform="matrix(0.707, 0.409, 0, 0.816, 0, 0)" xml:space="preserve"><tspan x="8" dy="0">EIP</tspan></text></svg></g></g></g><g></g></g></svg>